<svg xmlns="http://www.w3.org/2000/svg" viewBox="0 0 320 200" width="320" height="200"><title>三浦 颯太のイメージ画像</title><desc>チームカラーの配色と頭文字、職業を表すアイコンだけで描いたカードです。写真・ロゴは使っていません。図形はMaterial Symbols (Google, Apache License 2.0) を使用しています。</desc><g font-family="'Hiragino Sans','Noto Sans JP',sans-serif"><rect x="0" y="0" width="320" height="200" rx="16" fill="#f2f8fa"/><path d="M0 112V16a16 16 0 0 1 16-16h288a16 16 0 0 1 16 16v96Z" fill="#23b1ea"/><defs><g id="s1f5187f4aa"><g transform="translate(0 1.5) translate(4.0603 4.6140) scale(0.907720)"><g transform="translate(-1.12 82.61) scale(0.06992)"><path d="M220-303v74q0 7.57-2.5 15.78Q215-205 209-199L92-66Q81-52 64.5-50.5T34-60Q19-71 17.5-88T28-119l107-122-42-125q-9-26-3-49.5t22-39.5l124-133q11-12 26.5-18.5T293-613q15 0 30.5 7t26.5 18l84 79q42 38 66.5 46.5T565-454v83q-51 0-97-15.5T382-442l-29-30-93 96 94 79q9 7 13.5 16.54 4.5 9.55 4.5 20.46v180q0 17.75-11.68 29.37Q348.65-39 330.82-39 313-39 301-51.13 289-63.25 289-81v-160l-69-62Zm452 43v180q0 17.75-12.18 29.37Q647.65-39 630.82-39 613-39 601-51.13 589-63.25 589-81v-207q0-8.91 3.5-17.46Q596-314 602-321l76-76-32-180q-38 49-68.5 70.5T513-478q-19-8-35-19.5T444-530q52-9 90.5-33t71.5-79l40.7-66.81Q667-740 699.5-746q32.5-6 62.5 8l169 73q13.25 6.89 21.13 18.78Q960-634.33 960-620v118q0 17.75-12.18 29.37-12.17 11.63-29 11.63Q901-461 889-473.13q-12-12.12-12-29.87v-94l-77-34 93 546q3 18-9.58 32-12.59 14-33.69 14-13.73 0-24.69-8.81Q814.08-56.61 812-71l-63-271-77 82ZM443.08-605Q407-605 383-629.92t-24-60q0-36.08 23.92-60.58t60-24.5q35.08 0 59.58 24.42t24.5 60.5Q527-655 502.58-630t-59.5 25Zm205-178q-35.08 0-59.58-24.42t-24.5-59.5q0-35.08 24.42-59.58t59.5-24.5q36.08 0 60.58 24.42t24.5 59.5q0 35.08-24.42 59.58t-60.5 24.5Z"/></g><g transform="translate(59.35 29.65) scale(0.03052)"><path d="M479-55q-87 0-164.5-33.5t-135-91.5q-57.5-58-91-135T55-479.5Q55-568 88.5-645t91-135q57.5-58 135-92T479-906q88 0 165.5 34T780-780q58 58 92 134.91 34 76.9 34 165.09 0 88-34 165t-92 135q-58 58-135.5 91.5T479-55Zm199.66-512L747-591l17-63q-33-51-81.31-87.9Q634.38-778.8 573-797l-64 42.4v67.6l169.66 120ZM282-567l170-120.33V-755l-63.55-42q-61.54 18-110 55Q230-705 197-654l21 63 64 24Zm-53 311 59-7 38-64-60.02-184.9L196-536l-47 39q0 70 15.5 127.5T229-256Zm251 110q26 0 53-5.55 27-5.56 57-11.66L621-234l-32-54H372.34L340-234l33 70.79q25 6.1 53 11.66 28 5.55 54 5.55ZM376.46-346H580l59-178-159-114-161 114 57.46 178ZM732-256q48-56 63.5-113.5T811-497l-47.32-33-68.45 18L636-326.71 672-263l60 7Z"/></g></g></g></defs><svg width="320" height="112"><g opacity="0.22"><use href="#s1f5187f4aa" transform="translate(0 46) scale(1.28)" fill="#ffffff"/></g></svg><svg y="112" width="320" height="88"><g opacity="0.3"><use href="#s1f5187f4aa" transform="translate(0 -66) scale(1.28)" fill="#23b1ea"/></g></svg><rect x="0" y="104" width="320" height="8" fill="#221615"/><circle cx="160" cy="100" r="53" fill="#f2f8fa"/><circle cx="160" cy="100" r="48" fill="#f0f0f0" stroke="#23b1ea" stroke-width="2.5"/><text x="160" y="120.2" text-anchor="middle" font-size="56" font-weight="700" fill="#128aba">三</text><rect x="240" y="10" width="70" height="22" rx="11" fill="#ffffff"/><text x="275" y="26" text-anchor="middle" font-size="13" font-weight="600" fill="#1391c4">イメージ</text><g fill="none" stroke="#243a42" stroke-width="1.5"><circle cx="291" cy="175" r="13" fill="#fff"/><path d="M291 168.8 296.9 173.1 294.7 180 287.4 180 285.1 173.1ZM291 168.8V162.5M296.9 173.1 302.9 171.1M294.7 180 298.4 185.1M287.4 180 283.7 185.1M285.1 173.1 279.1 171.1"/></g><rect x=".5" y=".5" width="319" height="199" rx="15.5" fill="none" stroke="#d9e4e8"/></g></svg>
