<svg xmlns="http://www.w3.org/2000/svg" viewBox="0 0 320 200" width="320" height="200"><title>イブン・フィルナースのイメージ画像</title><desc>研究分野の配色と頭文字、分野を表すアイコンだけで描いたカードです。写真・肖像画は使っていません。図形はMaterial Symbols (Google, Apache License 2.0) を使用しています。</desc><g font-family="'Hiragino Sans','Noto Sans JP','Yu Gothic',sans-serif"><rect x="0" y="0" width="320" height="200" rx="16" fill="#faf6f2"/><path d="M0 112V16a16 16 0 0 1 16-16h288a16 16 0 0 1 16 16v96Z" fill="#ca7021"/><defs><g id="s6aae7dbaeb"><g transform="translate(0 -1.5) rotate(5 44 50) translate(7.9996 9.0905) scale(0.818190)"><g transform="translate(-1.50 94.50) scale(0.09479)"><path d="M318-103q-25 0-47-12.5T236-150L71-433q-13-22-13-47t13-47l165-283q13-22 35-34.5t47-12.5h325q24 0 46 12.5t36 34.5l164 283q13 22 13 47t-13 47L725-150q-14 22-36 34.5T643-103H318Z"/></g></g></g></defs><svg width="320" height="112"><g opacity="0.22"><use href="#s6aae7dbaeb" transform="translate(0 46) scale(1.28)" fill="#ffffff"/></g></svg><svg y="112" width="320" height="88"><g opacity="0.3"><use href="#s6aae7dbaeb" transform="translate(0 -66) scale(1.28)" fill="#ca7021"/></g></svg><rect x="0" y="104" width="320" height="8" fill="#5140bf"/><circle cx="160" cy="100" r="53" fill="#faf6f2"/><circle cx="160" cy="100" r="48" fill="#f7efe9" stroke="#ca7021" stroke-width="2.5"/><text x="160" y="120.2" text-anchor="middle" font-size="56" font-weight="700" fill="#af611d">フ</text><rect x="240" y="10" width="70" height="22" rx="11" fill="#ffffff"/><text x="275" y="26" text-anchor="middle" font-size="13" font-weight="600" fill="#b8661e">イメージ</text><rect x=".5" y=".5" width="319" height="199" rx="15.5" fill="none" stroke="#e8e0d9"/></g></svg>
